<svg xmlns="http://www.w3.org/2000/svg" width="191.992" height="192" viewBox="0 0 50.797 50.799"><path d="M0-.00011033h23.105v23.105H0zm25.639999 0h23.105v23.105h-23.105zM0 25.64189h23.105v23.105H0zm25.639999 0h23.105v23.105h-23.105z" transform="translate(0 .00011497) scale(1.042091)" style="fill:#0468d7;fill-opacity:1"/><path d="M0-.00011033h23.105v23.105H0zm25.639999 0h23.105v23.105h-23.105zM0 25.64189h23.105v23.105H0zm25.639999 0h23.105v23.105h-23.105z" transform="translate(0 .00011497) scale(1.042091)" style="fill:#0468d7;fill-opacity:1"/><path d="M0 0h24.077513v24.077513H0zm26.719213 0h24.077513v24.077513H26.719213zM0 26.721298h24.077513v24.077513H0zm26.719213 0h24.077513v24.077513H26.719213z" style="fill:#0468d7;stroke-width:1.04209;fill-opacity:1"/></svg>