<svg xmlns="http://www.w3.org/2000/svg" xmlns:xlink="http://www.w3.org/1999/xlink" id="Layer_1" width="842" height="1042.66" x="0" y="0" enable-background="new 0 0 842 1042.66" version="1.1" viewBox="0 0 842 1042.66" xml:space="preserve"><g><g><g><g><defs><path id="SVGID_1_" d="M840.4,481.28l-279.6,279.7l279.6,279.7l0,0H520.9L401,920.78l0,0l-159.8-159.8l279.7-279.7H840.4 L840.4,481.28L840.4,481.28z M520.9,1.98L1.6,521.28l159.8,159.8l679-679.1H520.9z"/></defs><clipPath id="SVGID_2_"><use overflow="visible" xlink:href="#SVGID_1_"/></clipPath><g clip-path="url(#SVGID_2_)"><g><polygon fill="#39CEFD" points="840.4 481.28 840.4 481.28 840.4 481.28 520.9 481.28 241.3 760.98 401 920.78"/></g></g></g></g><g><g><defs><path id="SVGID_3_" d="M840.4,481.28l-279.6,279.7l279.6,279.7l0,0H520.9L401,920.78l0,0l-159.8-159.8l279.7-279.7H840.4 L840.4,481.28L840.4,481.28z M520.9,1.98L1.6,521.28l159.8,159.8l679-679.1H520.9z"/></defs><clipPath id="SVGID_4_"><use overflow="visible" xlink:href="#SVGID_3_"/></clipPath><polygon fill="#39CEFD" points="161.4 681.08 1.6 521.28 520.9 1.98 840.4 1.98" clip-path="url(#SVGID_4_)"/></g></g><g><g><defs><path id="SVGID_5_" d="M840.4,481.28l-279.6,279.7l279.6,279.7l0,0H520.9L401,920.78l0,0l-159.8-159.8l279.7-279.7H840.4 L840.4,481.28L840.4,481.28z M520.9,1.98L1.6,521.28l159.8,159.8l679-679.1H520.9z"/></defs><clipPath id="SVGID_6_"><use overflow="visible" xlink:href="#SVGID_5_"/></clipPath><polygon fill="#03569B" points="401 920.78 520.9 1040.58 840.4 1040.58 840.4 1040.58 560.8 760.98" clip-path="url(#SVGID_6_)"/></g></g><g><g><defs><path id="SVGID_7_" d="M840.4,481.28l-279.6,279.7l279.6,279.7l0,0H520.9L401,920.78l0,0l-159.8-159.8l279.7-279.7H840.4 L840.4,481.28L840.4,481.28z M520.9,1.98L1.6,521.28l159.8,159.8l679-679.1H520.9z"/></defs><clipPath id="SVGID_8_"><use overflow="visible" xlink:href="#SVGID_7_"/></clipPath><linearGradient id="SVGID_9_" x1="15272.493" x2="15748.553" y1="9729.589" y2="9253.529" gradientTransform="matrix(0.25 0 0 0.25 -3370.5 -1480.7891)" gradientUnits="userSpaceOnUse"><stop offset="0" style="stop-color:#1a237e;stop-opacity:.4"/><stop offset="1" style="stop-color:#1a237e;stop-opacity:0"/></linearGradient><polygon fill="url(#SVGID_9_)" points="401 920.78 638 838.68 560.8 760.98" clip-path="url(#SVGID_8_)"/></g></g><g><g><defs><path id="SVGID_10_" d="M840.4,481.28l-279.6,279.7l279.6,279.7l0,0H520.9L401,920.78l0,0l-159.8-159.8l279.7-279.7H840.4 L840.4,481.28L840.4,481.28z M520.9,1.98L1.6,521.28l159.8,159.8l679-679.1H520.9z"/></defs><clipPath id="SVGID_11_"><use overflow="visible" xlink:href="#SVGID_10_"/></clipPath><g clip-path="url(#SVGID_11_)"><rect width="226" height="226" x="288.09" y="647.93" fill="#16B9FD" transform="matrix(0.7071 -0.7071 0.7071 0.7071 -420.5804 506.4808)"/></g></g></g></g><radialGradient id="SVGID_12_" cx="13582.658" cy="6214.26" r="5082.889" gradientTransform="matrix(0.25 0 0 0.25 -3370.5 -1480.7891)" gradientUnits="userSpaceOnUse"><stop offset="0" style="stop-color:#fff;stop-opacity:.1"/><stop offset="1" style="stop-color:#fff;stop-opacity:0"/></radialGradient><path fill="url(#SVGID_12_)" d="M840.4,481.28l-279.6,279.7l279.6,279.7l0,0H520.9L401,920.78l0,0l-159.8-159.8l279.7-279.7H840.4 L840.4,481.28L840.4,481.28z M520.9,1.98L1.6,521.28l159.8,159.8l679-679.1H520.9z"/></g></svg>